<svg width="32" height="24" viewBox="0 0 32 24" fill="none" xmlns="http://www.w3.org/2000/svg">
<path d="M30.8194 18.3678C30.2111 19.1355 28.7224 19.6816 28.7224 19.6816L17.6523 23.6579V20.7252L25.7994 17.8236C26.7245 17.4932 26.8664 17.0229 26.1142 16.778C25.364 16.5312 24.0056 16.6031 23.0824 16.9335L17.6523 18.8459V15.8024L17.9652 15.6975C17.9652 15.6975 19.5336 15.1416 21.7395 14.8968C23.9453 14.6538 26.6467 14.9298 28.7671 15.7324C31.1576 16.4904 31.4258 17.6021 30.8194 18.3678ZM18.7057 13.377V5.87513C18.7057 4.99474 18.5444 4.18431 17.7184 3.95498C17.0848 3.75091 16.6923 4.33978 16.6923 5.21824V24L11.6276 22.3927V0C13.7809 0.400356 16.9177 1.34489 18.6046 1.91432C22.8939 3.38554 24.3476 5.21824 24.3476 9.34813C24.3476 13.3731 21.8638 14.8987 18.7057 13.375V13.377ZM2.33384 20.4221C-0.118826 19.7263 -0.526956 18.2881 0.590544 17.4602C1.62447 16.6945 3.38138 16.1192 3.38138 16.1192L10.6442 13.5344V16.4787L5.4162 18.3503C4.49499 18.6807 4.35312 19.1491 5.1033 19.3959C5.85348 19.6408 7.21197 19.5708 8.13512 19.2404L10.6422 18.3289V20.9643L10.1427 21.0479C7.52723 21.4713 4.84811 21.2559 2.33384 20.4201V20.4221Z" fill="white"/>
</svg>
